<svg width="24" height="24" viewBox="0 0 24 24" fill="none" xmlns="http://www.w3.org/2000/svg">
<path d="M16.346 11.385V6.769H17.346V11.385H16.346ZM10.808 16.842C10.5067 16.6627 10.2647 16.418 10.082 16.108C9.89933 15.7973 9.808 15.4537 9.808 15.077V6.769H10.808V16.842ZM11.96 21C10.446 21 9.164 20.4683 8.114 19.405C7.064 18.3417 6.539 17.0527 6.539 15.538V6.808C6.539 5.75 6.90233 4.851 7.629 4.111C8.35767 3.37033 9.251 3 10.309 3C11.367 3 12.2597 3.37 12.987 4.11C13.7143 4.85 14.078 5.74933 14.078 6.808V14H13.078V6.789C13.074 6.01167 12.8067 5.35267 12.276 4.812C11.7453 4.27133 11.0893 4.00067 10.308 4C9.53267 4 8.87733 4.27367 8.342 4.821C7.806 5.36833 7.538 6.03067 7.538 6.808V15.538C7.53467 16.7733 7.96233 17.8257 8.821 18.695C9.68033 19.565 10.727 20 11.961 20C12.3317 20 12.6837 19.9587 13.017 19.876C13.3503 19.7933 13.6653 19.6693 13.962 19.504V20.614C13.65 20.7473 13.326 20.845 12.99 20.907C12.6533 20.969 12.31 21 11.96 21ZM16.346 20V17.384H13.731V16.384H16.346V13.77H17.346V16.385H19.962V17.385H17.346V20H16.346Z" fill="black"/>
</svg>
