<svg width="24" height="24" viewBox="0 0 24 24" fill="none" xmlns="http://www.w3.org/2000/svg">
<path d="M17.346 15.539C17.346 17.053 16.8243 18.3417 15.781 19.405C14.7377 20.4683 13.4613 21 11.952 21C10.4427 21 9.16333 20.4683 8.11399 19.405C7.06466 18.3417 6.53933 17.0527 6.53799 15.538V6.808C6.53799 5.75 6.90199 4.851 7.62999 4.111C8.35666 3.37033 9.24933 3 10.308 3C11.3667 3 12.2593 3.37 12.986 4.11C13.7127 4.85 14.0763 5.74933 14.077 6.808V15.077C14.077 15.6637 13.872 16.1693 13.462 16.594C13.0527 17.0187 12.5533 17.231 11.964 17.231C11.3747 17.231 10.868 17.022 10.444 16.604C10.02 16.186 9.80799 15.677 9.80799 15.077V6.769H10.808V15.077C10.808 15.3963 10.917 15.6683 11.135 15.893C11.3537 16.1183 11.6227 16.231 11.942 16.231C12.2613 16.231 12.5303 16.1183 12.749 15.893C12.9677 15.6677 13.077 15.3957 13.077 15.077V6.789C13.073 6.01167 12.8057 5.35267 12.275 4.812C11.745 4.27067 11.0893 4 10.308 4C9.53266 4 8.87733 4.27367 8.34199 4.821C7.80599 5.36833 7.53799 6.03067 7.53799 6.808V15.538C7.53466 16.7733 7.96233 17.8257 8.82099 18.695C9.68033 19.565 10.7267 20 11.96 20C13.1753 20 14.2087 19.565 15.06 18.695C15.9113 17.825 16.3403 16.773 16.347 15.539V6.769H17.347L17.346 15.539Z" fill="black"/>
</svg>
