<svg width="25" height="25" viewBox="0 0 25 25" fill="none" xmlns="http://www.w3.org/2000/svg">
<path d="M12.5 0C5.60287 0 0 5.60288 0 12.5C0 19.3971 5.60287 25 12.5 25C19.3971 25 25 19.3971 25 12.5C25 5.60288 19.3971 0 12.5 0ZM12.5 1.08696C18.8097 1.08696 23.913 6.19031 23.913 12.5C23.913 18.8097 18.8097 23.913 12.5 23.913C6.19031 23.913 1.08696 18.8097 1.08696 12.5C1.08696 6.19031 6.19031 1.08696 12.5 1.08696ZM17.4391 6.54085C17.0673 6.54085 16.6496 6.62695 16.161 6.80303C15.4024 7.0764 6.47866 10.8653 5.46345 11.2963C4.88301 11.543 3.80223 12.002 3.80223 13.0966C3.80223 13.8221 4.22738 14.341 5.06433 14.6399C5.51433 14.8003 6.58311 15.1242 7.20322 15.2949C7.46626 15.3672 7.74579 15.4042 8.03329 15.4042C8.59579 15.4042 9.16187 15.2641 9.60535 15.0168C9.60154 15.1081 9.60403 15.2004 9.6149 15.2928C9.68175 15.8634 10.0336 16.4001 10.5554 16.7289C10.8967 16.9442 13.6844 18.812 14.1007 19.1088C14.6855 19.5267 15.332 19.7478 15.9689 19.7478C17.1863 19.7478 17.5948 18.4908 17.7915 17.887C18.0768 17.0104 19.1452 9.8816 19.2659 8.62453C19.348 7.76312 18.9889 7.05378 18.3053 6.7266C18.0493 6.60323 17.757 6.54085 17.4391 6.54085ZM17.4391 7.6278C17.5885 7.6278 17.722 7.65252 17.835 7.70741C18.0921 7.83078 18.2228 8.10581 18.1832 8.52157C18.0517 9.89277 16.9858 16.8527 16.7587 17.5505C16.5641 18.1473 16.3591 18.6608 15.9689 18.6608C15.5787 18.6608 15.1524 18.524 14.7323 18.2235C14.3122 17.9235 11.5224 16.0527 11.1349 15.8086C10.7953 15.5945 10.4358 15.0607 10.9417 14.5444C11.3586 14.1194 14.5206 11.0505 14.7907 10.7804C14.9918 10.5788 14.8977 10.3356 14.7005 10.3356C14.6325 10.3356 14.5512 10.3643 14.4669 10.4333C14.1365 10.7034 9.52977 13.786 9.13086 14.0338C8.86673 14.198 8.45774 14.3162 8.03329 14.3162C7.85231 14.3162 7.66908 14.2945 7.49299 14.2461C6.87995 14.0771 5.84249 13.7624 5.43054 13.6156C5.03434 13.4743 4.89024 13.3389 4.89024 13.0965C4.89024 12.752 5.3766 12.5141 5.8891 12.2962C6.4304 12.0663 15.7968 8.08882 16.5294 7.82523C16.8685 7.70241 17.1787 7.6278 17.4391 7.6278Z" fill="#1A1A1A"/>
</svg>
